<svg xmlns="http://www.w3.org/2000/svg" viewBox="0 0 1254 1254"><rect width="1254" height="1254" rx="280" fill="#914B3C"/><g transform="translate(627 640) scale(.86) translate(-627 -478)"><g fill="none" stroke="#F5F0E6" stroke-width="44" stroke-linecap="round" stroke-linejoin="round"><path d="M627 262V765"/><polyline points="410,263 517,192 627,260 737,192 845,263"/><polyline points="358,337 410,372 517,303 627,372 737,303 845,372 897,337"/><polyline points="310,410 410,475 517,405 627,475 737,405 845,475 942,410"/><polyline points="250,540 305,505 410,572 517,505 627,572 737,505 845,572 947,505 1005,540"/><polyline points="195,670 297,605 405,675 513,607 627,675 742,607 852,680 960,607 1058,670"/></g></g></svg>